<svg width="144" height="195" viewBox="0 0 144 195" fill="none" xmlns="http://www.w3.org/2000/svg">
<path d="M78.5343 132.688C77.2951 133.489 76.085 134.222 74.8249 134.32C72.2448 134.52 69.6379 134.38 66.8889 134.38C66.8889 126.246 66.8889 118.508 66.8889 110.593C70.6266 110.593 74.2592 110.593 78.5407 110.593C78.5407 117.741 78.5407 125.036 78.5343 132.688Z" fill="#CE076A"/>
<path d="M119.287 80.7304C120.191 84.4761 120.727 88.2088 121.319 92.3271C112.747 92.3271 104.961 92.3271 97.0493 92.3271C97.0493 88.6116 97.0493 84.8842 97.0493 80.7173C104.337 80.7173 111.628 80.7173 119.287 80.7304Z" fill="#2E7B55"/>
<path d="M66.7176 44.4699C66.7177 42.4571 66.7177 40.8444 66.7177 38.9458C70.8632 38.9458 74.6259 38.9458 78.6586 38.9458C78.6586 46.8262 78.6586 54.5643 78.6586 62.5624C74.9071 62.5624 71.1235 62.5624 66.7175 62.5624C66.7175 56.7722 66.7175 50.8211 66.7176 44.4699Z" fill="#FBB240"/>
<path d="M46.1579 120.37C49.339 114.924 52.3614 109.747 55.4379 104.477C58.8274 106.412 62.0955 108.279 65.6968 110.336C61.8104 117.014 57.856 123.81 53.7902 130.797C50.3514 128.839 47.1649 127.025 43.6934 125.049C44.5427 123.424 45.2709 122.031 46.1579 120.37Z" fill="#0875BE"/>
<path d="M90.7614 104.496C92.6389 100.97 94.5164 97.4432 96.5803 93.5664C103.443 97.484 110.177 101.328 117.338 105.416C115.39 108.768 113.52 111.985 111.455 115.54C104.585 111.691 97.9442 107.97 91.0192 104.362C90.7353 104.475 90.7614 104.496 90.7614 104.496Z" fill="#CE076A"/>
<path d="M55.1361 69.1055C53.3961 65.6525 51.7329 62.1585 49.8947 58.7578C48.0189 55.2873 45.9712 51.9084 43.8193 48.1783C47.2451 46.2003 50.4123 44.3715 53.887 42.3652C57.9334 49.2874 61.8567 55.9992 65.7812 62.7129C62.2425 64.7005 58.8223 66.6214 55.2403 68.8217C55.0784 69.1011 55.1361 69.1055 55.1361 69.1055Z" fill="#2E7B55"/>
<path d="M117.021 67.4398C110.382 71.7454 103.703 75.7624 96.8892 79.8599C94.8284 76.3236 92.9437 73.0896 90.8662 69.5246C97.5923 65.6679 104.317 61.8117 111.499 57.6938C113.46 61.0778 115.22 64.1145 117.021 67.4398Z" fill="#FBB240"/>
<path d="M55.0839 69.0729C53.0526 72.4114 51.0168 75.7782 48.7726 79.4895C42.1809 75.7261 35.4647 71.8916 28.2412 67.7674C30.161 64.4269 32.018 61.1957 34.0813 57.6055C41.0146 61.5078 47.7746 65.3126 54.8359 69.1115C55.137 69.1056 55.0794 69.1012 55.0839 69.0729Z" fill="#F15E29"/>
<path d="M90.7242 104.462C91.0697 105.628 91.2241 106.919 91.816 107.967C94.9716 113.554 98.2367 119.08 101.654 124.954C98.4092 126.824 95.3482 128.589 91.711 130.685C87.7408 123.909 83.8482 117.266 79.7947 110.348C83.485 108.482 86.9245 106.743 90.5625 104.75C90.761 104.497 90.7349 104.475 90.7242 104.462Z" fill="#0875BE"/>
<path d="M88.6414 68.0439C85.6913 66.2523 83.0056 64.6296 79.9299 62.7713C83.7427 56.1748 87.6006 49.5001 91.6957 42.415C95.0895 44.3178 98.2545 46.0923 101.984 48.1834C98.4895 54.2337 95.1604 60.1168 91.678 65.909C91.0948 66.8789 89.8466 67.4548 88.6414 68.0439Z" fill="#FBB240"/>
<path d="M38.0775 113.068C36.6267 113.868 35.4255 114.498 34.0373 115.228C32.1517 112.008 30.359 108.948 28.2412 105.332C35.0568 101.417 41.7926 97.5482 48.7015 93.5796C50.6137 96.8683 52.4439 100.016 54.5206 103.588C49.2147 106.639 43.771 109.77 38.0775 113.068Z" fill="#CE076A"/>
<path d="M36.8216 80.6001C40.9285 80.6001 44.6231 80.6001 48.511 80.6001C48.511 84.4417 48.511 88.0576 48.511 91.9829C40.7668 91.9829 33.0081 91.9829 24.9885 91.9829C24.9885 88.3737 24.9885 84.7543 24.9885 80.6001C28.8262 80.6001 32.6177 80.6001 36.8216 80.6001Z" fill="#0875BE"/>
<path d="M77.8104 20.845C78.5154 24.7817 78.8677 28.62 79.2569 32.8611C74.7792 32.8611 70.914 32.8611 66.8794 32.8611C66.8794 28.9568 66.8794 25.1785 66.8794 20.7466C70.4534 20.7466 73.9556 20.7466 77.8104 20.845Z" fill="#FBB240"/>
<path d="M68.7711 140.146C72.0079 140.144 74.8763 140.144 78.0527 140.144C78.0527 144.271 78.0527 148.142 78.0527 152.256C74.3785 152.256 70.6146 152.256 66.4394 152.256C66.4394 148.815 66.3335 145.437 66.5283 142.077C66.5675 141.401 67.7483 140.79 68.7711 140.146Z" fill="#CE076A"/>
<path d="M129.947 80.9438C133.058 80.9441 135.788 80.9441 138.683 80.9441C138.683 85.019 138.683 88.6703 138.683 92.5937C134.817 92.5937 131.015 92.5937 126.512 92.5937C126.512 89.3548 126.351 85.9865 126.65 82.6591C126.709 82.0063 128.549 81.5114 129.947 80.9438Z" fill="#2E7B55"/>
<path d="M20.2251 49.5652C23.185 51.3019 25.8989 52.8889 28.8406 54.609C26.8434 58.0457 25.0042 61.2106 22.9812 64.6918C19.439 62.6879 16.1255 60.8134 12.3533 58.6794C14.1647 55.5659 15.7915 52.605 17.6307 49.7804C17.9172 49.3403 19.1721 49.5216 20.2251 49.5652Z" fill="#F15E29"/>
<path d="M24.9391 112.084C26.179 114.222 27.261 116.105 28.5253 118.306C25.098 120.292 21.7241 122.247 18.1169 124.338C16.139 120.954 14.3033 117.814 12.2637 114.324C15.7366 112.318 18.9932 110.437 22.5689 108.372C23.3665 109.618 24.0737 110.724 24.9391 112.084Z" fill="#CE076A"/>
<path d="M122.53 122.332C120.391 121.067 118.509 119.976 116.344 118.721C118.313 115.316 120.194 112.063 122.225 108.55C125.795 110.607 129.063 112.491 132.814 114.653C130.849 118.043 128.986 121.258 127.003 124.68C125.401 123.854 124.094 123.179 122.53 122.332Z" fill="#CE076A"/>
<path d="M42.0802 28.2365C43.7315 27.0808 44.91 26.6493 45.9422 28.6591C47.3718 31.4425 49.0267 34.1119 50.7727 37.1573C47.3578 39.1135 44.1813 40.933 40.6815 42.9378C38.6614 39.4782 36.7521 36.2085 34.6162 32.5507C37.1407 31.0984 39.483 29.7509 42.0802 28.2365Z" fill="#2E7B55"/>
<path d="M41.5858 144.87C39.0892 143.433 36.8572 142.12 34.2183 140.568C36.1956 137.135 38.1176 133.797 40.2626 130.072C43.7827 132.076 47.0302 133.924 50.5115 135.905C48.7677 138.942 47.1097 141.578 45.713 144.344C44.6187 146.51 43.3687 146.14 41.5858 144.87Z" fill="#0875BE"/>
<path d="M96.129 34.8382C97.7235 32.1246 99.1565 29.6628 100.773 26.8862C104.202 28.8245 107.371 30.6163 110.967 32.649C109.007 36.1211 107.163 39.3874 104.999 43.2205C101.878 41.4567 98.8871 39.9125 96.1058 38.0587C95.6127 37.73 95.9913 36.1124 96.129 34.8382Z" fill="#FBB240"/>
<path d="M130.676 54.8747C131.472 56.3263 132.137 57.5116 133 59.0491C129.536 61.0434 126.147 62.9951 122.505 65.0922C120.51 61.7391 118.644 58.6045 116.506 55.0129C119.999 52.9819 123.347 51.0354 127.079 48.8657C128.334 50.9446 129.439 52.7765 130.676 54.8747Z" fill="#FBB240"/>
<path d="M109.807 141.032C106.672 142.926 103.709 144.606 100.481 146.435C98.4835 142.991 96.5972 139.739 94.5562 136.219C97.8907 134.285 100.941 132.515 104.612 130.385C106.469 133.995 108.224 137.406 109.807 141.032Z" fill="#0875BE"/>
<path d="M18.2414 91.8608C14.2625 92.1612 10.5453 92.1612 6.25684 92.1612C6.25684 90.1815 6.25684 88.315 6.25684 86.4485C6.25684 84.6846 6.25684 82.9207 6.25684 80.8823C10.4173 80.8823 14.3194 80.8823 18.5031 80.8823C18.5031 84.5012 18.5031 88.0308 18.2414 91.8608Z" fill="#0875BE"/>
</svg>
