<svg width="217" height="48" viewBox="0 0 217 48" fill="none" xmlns="http://www.w3.org/2000/svg">
<path d="M87.3572 45.3863C87.3572 46.2273 87.3572 46.8677 87.3572 47.5655C85.2305 47.5655 83.2883 47.5655 81.158 47.5655C81.158 35.7521 81.158 23.9599 81.158 12.0202C82.9576 12.0202 84.7948 12.0202 86.709 12.0202C86.9258 12.908 87.1454 13.8075 87.4561 15.0801C90.3244 11.7286 93.8699 10.6662 97.9726 11.4288C100.944 11.9811 103.326 13.51 105.162 15.8883C109.191 21.1061 108.651 29.378 104 33.942C99.5857 38.274 93.1234 38.3641 87.3572 33.8412C87.3572 37.8301 87.3572 41.5079 87.3572 45.3863ZM94.767 31.5499C98.7343 30.7941 100.901 28.6162 101.183 25.1001C101.479 21.4061 99.7084 18.3334 96.619 17.3326C93.8446 16.4339 91.305 16.8938 89.2818 19.076C87.0986 21.4311 86.7852 24.2766 87.8607 27.1585C88.9522 30.083 91.2592 31.535 94.767 31.5499Z" fill="black"/>
<path d="M197.345 12.8372C201.553 10.795 205.69 10.5742 209.807 12.5069C214.738 14.8221 217.337 20.3147 216.122 25.8552C210.059 25.8552 203.95 25.8552 197.697 25.8552C197.786 28.5344 198.992 30.285 201.19 31.2587C203.442 32.2561 206.046 32.4577 207.613 30.4923C209.104 28.6211 210.746 28.8259 212.568 28.7992C213.506 28.7855 214.443 28.7968 215.39 28.7968C214.818 33.0659 210.49 36.6882 205.413 37.2066C199.235 37.8375 193.849 34.6952 191.903 29.3242C189.666 23.1529 191.805 16.5414 197.345 12.8372ZM199.744 18.0389C199.017 19.1139 198.29 20.1889 197.336 21.6C201.84 21.6 205.732 21.6 209.612 21.6C209.643 21.343 209.695 21.1965 209.671 21.063C208.929 16.7994 204.396 15.2852 199.744 18.0389Z" fill="black"/>
<path d="M26.4599 11.2338C31.6779 11.9199 34.8362 14.6676 35.1266 19.5064C35.4625 25.1041 35.2048 30.7375 35.2048 36.4975C33.2437 36.4975 31.1975 36.4975 28.9152 36.4975C28.9152 32.6945 28.9186 28.9579 28.9129 25.2213C28.9114 24.2107 28.9417 23.195 28.8551 22.1904C28.5485 18.6325 27.0414 16.9364 24.1485 16.8161C20.6987 16.6727 18.182 18.5577 17.8596 21.9859C17.5631 25.1388 17.7062 28.3337 17.6703 31.5103C17.6524 33.0974 17.6672 34.6848 17.6672 36.4552C15.5429 36.4552 13.4962 36.4552 11.2876 36.4552C11.2876 28.3898 11.2876 20.2711 11.2876 12.0132C13.1275 12.0132 14.9582 12.0132 16.8396 12.0132C16.9971 13.0765 17.1431 14.0616 17.3688 15.5851C19.7477 12.3682 22.6783 11.0338 26.4599 11.2338Z" fill="black"/>
<path d="M127.063 26.5317C126.24 20.4424 128.639 15.307 133.37 12.7554C138.045 10.2338 143.942 10.8261 147.965 14.2215C152.179 17.7775 153.535 24.4273 151.163 29.8993C148.972 34.9525 143.538 37.9435 137.911 37.1939C132.139 36.4252 128.038 32.4478 127.063 26.5317ZM143.034 30.4188C145.884 27.8678 146.634 22.9956 144.622 19.785C143.378 17.8008 141.554 16.7226 139.191 16.9107C136.756 17.1045 134.906 18.4069 134.178 20.7254C133.697 22.2548 133.545 23.9841 133.673 25.59C134.074 30.6464 138.213 32.874 143.034 30.4188Z" fill="black"/>
<path d="M69.2664 11.8073C78.0505 14.877 79.3832 24.2502 76.5941 30.2752C73.5635 36.8217 65.0198 39.2892 58.641 35.5702C53.2374 32.4198 51.0056 25.5823 53.3215 19.2728C55.4194 13.5569 61.4574 10.2443 67.6199 11.4306C68.116 11.5261 68.6088 11.6388 69.2664 11.8073ZM71.2179 22.9168C70.9082 20.301 69.7705 18.2604 67.1969 17.2753C64.1837 16.1218 60.8147 17.7161 59.6557 20.8083C58.0115 25.1952 59.6632 30.0855 63.3327 31.1982C64.4832 31.5471 65.9193 31.5201 67.076 31.1716C70.1168 30.2554 71.3522 27.7168 71.2179 22.9168Z" fill="black"/>
<path d="M162.982 35.7037C162.4 36.1429 161.833 36.5637 161.241 36.6043C159.743 36.7068 158.234 36.6383 156.522 36.6383C156.522 30.1606 156.522 23.843 156.522 17.4141C155.331 17.3547 154.34 17.3053 153.24 17.2504C153.24 15.5252 153.24 13.8282 153.24 11.962C154.235 11.905 155.207 11.8492 156.312 11.7859C156.715 8.40661 155.89 4.63482 159.203 2.24659C161.727 0.426963 164.637 0.649729 167.643 0.827721C167.643 2.59148 167.643 4.28389 167.643 5.96814C162.759 7.01971 162.555 7.28133 163.23 11.8737C164.035 11.8737 164.879 11.8737 165.724 11.8737C166.506 11.8737 167.289 11.8737 168.2 11.8737C168.2 13.7347 168.2 15.419 168.2 17.2669C166.532 17.2669 164.896 17.2669 162.986 17.2669C162.986 23.4532 162.986 29.4827 162.982 35.7037Z" fill="black"/>
<path d="M39.9862 9.52962C40.3301 2.33475 43.351 0.0532835 51.2109 0.894992C51.2109 2.60421 51.2109 4.31945 51.2109 6.02332C46.2914 6.86001 46.197 6.97835 46.6673 11.8164C48.2758 11.8164 49.9065 11.8164 51.6608 11.8164C51.6608 13.6725 51.6608 15.3782 51.6608 17.2218C50.0625 17.2218 48.4331 17.2218 46.5548 17.2218C46.5548 23.7216 46.5548 30.0932 46.5548 36.5289C44.2431 36.5289 42.1817 36.5289 39.9548 36.5289C39.9548 30.0968 39.9548 23.7718 39.9548 17.3244C38.8034 17.3244 37.8159 17.3244 36.7083 17.3244C36.7083 15.5079 36.7083 13.8152 36.7083 11.9812C37.7307 11.9223 38.7228 11.8652 39.9862 11.7924C39.9862 11.11 39.9862 10.4233 39.9862 9.52962Z" fill="black"/>
<path d="M181.472 34.9605C181.472 23.4993 181.472 12.2396 181.472 0.861328C183.632 0.861328 185.694 0.861328 187.877 0.861328C187.877 12.7011 187.877 24.5707 187.877 36.6378C186.112 36.6378 184.39 36.7384 182.694 36.5702C182.245 36.5257 181.877 35.6539 181.472 34.9605Z" fill="black"/>
<path d="M117.438 35.3172C117.057 35.8867 116.697 36.5573 116.292 36.5861C114.583 36.7075 112.86 36.6375 111.025 36.6375C111.025 28.3733 111.025 20.3072 111.025 12.0573C112.815 12.0573 114.649 12.0573 116.631 12.0573C116.832 13.1905 117.05 14.4208 117.33 16.0011C119.693 12.8385 122.541 11.2008 126.295 11.243C126.295 13.5823 126.295 15.7903 126.295 18.1365C125.332 18.1365 124.469 18.0938 123.611 18.1438C119.741 18.3693 117.624 20.3878 117.474 24.2859C117.336 27.8935 117.441 31.5104 117.438 35.3172Z" fill="black"/>
<path d="M174.857 36.6383C173.511 36.6383 172.368 36.6383 171.109 36.6383C171.109 28.3577 171.109 20.2325 171.109 11.9902C173.162 11.9902 175.224 11.9902 177.398 11.9902C177.398 20.1623 177.398 28.2873 177.398 36.6382C176.612 36.6382 175.836 36.6382 174.857 36.6383Z" fill="black"/>
<path d="M0.581787 22.5204C0.581787 18.9185 0.581787 15.5336 0.581787 12.0117C2.75642 12.0117 4.80983 12.0117 6.94482 12.0117C6.94482 20.1968 6.94482 28.3195 6.94482 36.5406C4.86602 36.5406 2.87225 36.5406 0.581787 36.5406C0.581787 31.9031 0.581787 27.3202 0.581787 22.5204Z" fill="black"/>
<path d="M171.64 7.33486C171.192 5.1372 170.94 2.94319 170.669 0.585938C173.082 0.585938 175.126 0.585938 177.306 0.585938C177.306 2.75038 177.306 4.88548 177.306 7.33851C175.523 7.33851 173.68 7.33851 171.64 7.33486Z" fill="black"/>
<path d="M3.56304 0.454128C4.76499 0.454155 5.75951 0.454155 6.89146 0.454155C6.89146 2.74678 6.89146 4.92823 6.89146 7.22594C4.86792 7.22594 2.82043 7.22594 0.641113 7.22594C0.641113 5.07326 0.641113 2.88934 0.641113 0.454102C1.54265 0.454102 2.44912 0.454102 3.56304 0.454128Z" fill="black"/>
</svg>
